<svg xmlns="http://www.w3.org/2000/svg" xmlns:xlink="http://www.w3.org/1999/xlink" width="72px" height="72px" viewBox="0 0 72 72"><title>Logo_AskWho</title><defs><polygon id="path-1" points="0 72.00144 72 72.00144 72 -1.36424205e-14 0 -1.36424205e-14"></polygon></defs><g id="Symbols" stroke="none" stroke-width="1" fill="none" fill-rule="evenodd"><g id="Side_Nav" transform="translate(-17.000000, -16.000000)"><g id="Logo_AskWho" transform="translate(17.000000, 16.000000)"><path d="M30.871224,14.746104 L26.783544,4.491864 C26.676984,4.205544 26.533464,3.667704 26.353944,3.166104 L26.317944,3.166104 C26.174424,3.703464 25.996104,4.169784 25.888344,4.491864 L21.908424,14.746104 L30.871224,14.746104 Z M31.767624,17.004744 L21.047784,17.004744 L17.856744,25.179384 L15.204264,25.179384 L25.313784,0.011064 L28.254744,0.011064 L38.364264,25.179384 L34.994904,25.179384 L31.767624,17.004744 Z" id="Fill-1" fill="#222222"></path><path d="M39.151824,22.705248 L40.120224,21.307248 C41.625984,22.490208 43.884624,23.529888 46.644864,23.529888 C48.795744,23.529888 50.337264,22.454448 50.337264,20.697888 C50.337264,18.259728 47.685024,17.686368 44.995344,16.897488 C42.378864,16.108848 39.725184,15.104448 39.725184,11.806368 C39.725184,8.472048 42.522384,6.894528 46.143264,6.894528 C49.226784,6.894528 51.377424,8.149728 52.560144,9.296928 L51.592944,10.587168 C50.768304,9.906048 49.083024,8.830368 46.322784,8.830368 C44.028144,8.830368 42.592944,9.726528 42.592944,11.411568 C42.592944,13.311888 44.817024,13.885968 47.182224,14.567088 C50.051424,15.391488 53.206464,16.395408 53.206464,20.088048 C53.206464,23.565888 50.516784,25.537968 46.896144,25.537968 C43.059984,25.537968 40.657584,24.103728 39.151824,22.705248" id="Fill-3" fill="#222222"></path><path d="M71.956824,25.179312 L68.658024,25.179312 L63.925224,17.434752 C63.387864,16.574592 63.172344,15.750192 63.208344,14.997312 L60.949704,17.184192 C59.551704,18.510432 59.228424,19.334832 59.228424,21.522672 L59.228424,25.179312 L56.288664,25.179312 L56.288664,0.000192 L59.228424,0.000192 L59.228424,14.351712 C59.228424,14.925312 59.156664,15.606672 59.048904,16.108752 C59.515704,15.606672 60.376344,14.674272 61.882104,13.240272 C65.718264,9.654912 68.442504,7.253232 68.442504,7.253232 L71.418264,7.253232 L65.502744,12.845712 C65.287464,13.061232 65.143704,13.312032 65.107704,13.598832 C65.073144,13.921392 65.179704,14.315712 65.502744,14.782032 L71.956824,25.179312 Z" id="Fill-5" fill="#222222"></path><path d="M3.050928,28.396104 L6.492768,28.396104 L12.372768,48.652824 C12.480048,48.975384 12.623568,49.584744 12.731328,50.158584 L12.767328,50.158584 C12.910368,49.584744 13.053888,49.010904 13.161648,48.652824 L17.105088,35.458824 C17.678928,33.558744 17.893968,32.949384 17.320608,31.085064 L16.495968,28.396104 L19.865808,28.396104 L25.746048,48.795864 L26.032608,50.122344 L26.068368,50.122344 L26.426928,48.795864 L32.485968,28.396104 L35.282688,28.396104 L27.430608,53.564424 L24.275568,53.564424 L19.184688,36.964584 C19.076928,37.287864 19.005168,37.574424 18.897408,37.861224 L14.057568,53.564424 L10.902288,53.564424 L3.050928,28.396104 Z" id="Fill-7" fill="#222222"></path><path d="M52.023936,41.66148 L52.023936,53.56452 L48.976416,53.56452 L48.976416,41.66148 C48.976416,40.26348 48.725616,39.3666 48.079776,38.64972 C47.470656,37.9686 46.538976,37.61028 45.462816,37.64628 C43.562736,37.64628 42.272256,38.50644 41.555376,39.25908 C40.837776,39.94068 40.372176,40.80084 40.372176,42.19932 L40.372176,53.56452 L37.360656,53.56452 L37.360656,28.3962 L40.372176,28.3962 L40.372176,37.8966 C40.873776,37.323 41.447616,36.85716 42.128736,36.46308 C43.275936,35.78124 44.745696,35.31588 46.251696,35.31588 C48.079776,35.31588 49.514496,35.925 50.482176,37.03644 C51.486576,38.11188 52.023936,39.7254 52.023936,41.66148" id="Fill-9" fill="#222222"></path><path d="M68.80224,44.672976 C68.80224,40.298976 66.86616,37.358496 63.4596,37.358496 C60.05376,37.358496 58.11744,40.298976 58.11744,44.672976 C58.11744,49.226256 60.05376,51.843456 63.4596,51.843456 C66.86616,51.843456 68.80224,49.047456 68.80224,44.672976 M54.96288,44.672976 C54.96288,38.900496 58.47624,35.279616 63.4596,35.279616 C68.4432,35.279616 71.9568,38.900496 71.9568,44.672976 C71.9568,50.445456 68.4432,53.923056 63.4596,53.923056 C58.47624,53.923056 54.96288,50.445456 54.96288,44.672976" id="Fill-11" fill="#222222"></path><mask id="mask-2" fill="white"><use xlink:href="#path-1"></use></mask><g id="Clip-14"></g><polygon id="Fill-13" fill="#222222" mask="url(#mask-2)" points="0 3.01224 12.16032 3.01224 12.16032 -0.00024 0 -0.00024"></polygon><polygon id="Fill-15" fill="#222222" mask="url(#mask-2)" points="0 12.1608 3.01224 12.1608 3.01224 0.00048 0 0.00048"></polygon><polygon id="Fill-16" fill="#222222" mask="url(#mask-2)" points="0 72.00144 12.16032 72.00144 12.16032 68.9892 0 68.9892"></polygon><polygon id="Fill-17" fill="#222222" mask="url(#mask-2)" points="0 72.0012 3.01224 72.0012 3.01224 59.84088 0 59.84088"></polygon><polygon id="Fill-18" fill="#222222" mask="url(#mask-2)" points="59.83968 72.00144 72 72.00144 72 68.9892 59.83968 68.9892"></polygon><polygon id="Fill-19" fill="#222222" mask="url(#mask-2)" points="68.98776 72.0012 72 72.0012 72 59.84088 68.98776 59.84088"></polygon></g></g></g></svg>